<svg width="72" height="72" viewBox="0 0 72 72" fill="none" xmlns="http://www.w3.org/2000/svg">
<rect width="72" height="72" rx="8" fill="#2382F7"/>
<path d="M42.0625 29.5511C41.911 28.2064 41.286 27.1648 40.1875 26.4261C39.089 25.678 37.7064 25.304 36.0398 25.304C34.8466 25.304 33.8144 25.4934 32.9432 25.8722C32.072 26.2415 31.3949 26.7528 30.9119 27.4062C30.4384 28.0502 30.2017 28.7841 30.2017 29.608C30.2017 30.2992 30.3627 30.8958 30.6847 31.3977C31.0161 31.8996 31.447 32.321 31.9773 32.6619C32.517 32.9934 33.0947 33.2727 33.7102 33.5C34.3258 33.7178 34.9176 33.8977 35.4858 34.0398L38.3267 34.7784C39.2547 35.0057 40.2064 35.3134 41.1818 35.7017C42.1572 36.09 43.0616 36.6013 43.8949 37.2358C44.7282 37.8703 45.4006 38.6562 45.9119 39.5938C46.4328 40.5312 46.6932 41.6534 46.6932 42.9602C46.6932 44.608 46.267 46.071 45.4148 47.3494C44.572 48.6278 43.3456 49.6364 41.7358 50.375C40.1354 51.1136 38.1989 51.483 35.9261 51.483C33.7481 51.483 31.8636 51.1373 30.2727 50.446C28.6818 49.7547 27.4366 48.7746 26.5369 47.5057C25.6373 46.2273 25.1402 44.7121 25.0455 42.9602H29.4489C29.5341 44.0114 29.875 44.8873 30.4716 45.5881C31.0777 46.2794 31.8494 46.7955 32.7869 47.1364C33.7339 47.4678 34.7708 47.6335 35.8977 47.6335C37.1383 47.6335 38.2415 47.4394 39.2074 47.0511C40.1828 46.6534 40.9498 46.1042 41.5085 45.4034C42.0672 44.6932 42.3466 43.8646 42.3466 42.9176C42.3466 42.0559 42.1004 41.3504 41.608 40.8011C41.125 40.2519 40.4669 39.7973 39.6335 39.4375C38.8097 39.0777 37.8769 38.7604 36.8352 38.4858L33.3977 37.5483C31.0682 36.9138 29.2216 35.9811 27.858 34.75C26.5038 33.5189 25.8267 31.8902 25.8267 29.8636C25.8267 28.1875 26.2813 26.7244 27.1903 25.4744C28.0994 24.2244 29.3305 23.2538 30.8835 22.5625C32.4366 21.8617 34.1884 21.5114 36.1392 21.5114C38.1089 21.5114 39.8466 21.857 41.3523 22.5483C42.8674 23.2396 44.0606 24.1913 44.9318 25.4034C45.803 26.6061 46.2576 27.9886 46.2955 29.5511H42.0625Z" fill="white"/>
</svg>
